<svg width="109" height="34" viewBox="0 0 109 34" fill="none" xmlns="http://www.w3.org/2000/svg">
<path d="M11.5742 3.1875H24.65C25.5949 3.1875 26.5427 3.34192 27.2043 4.02758C27.8559 4.70475 27.9792 5.64258 27.9792 6.51667V23.2333C27.9792 24.0026 27.8772 24.7591 27.4833 25.3711C27.2561 25.7241 26.938 26.0094 26.5625 26.197V27.4833C26.5625 28.4268 26.4095 29.3746 25.7253 30.0362C25.0481 30.6907 24.1103 30.8125 23.2362 30.8125H8.14584C7.58226 30.8125 7.04175 30.5886 6.64324 30.1901C6.24472 29.7916 6.02084 29.2511 6.02084 28.6875V8.52408C6.01659 7.81858 6.01234 6.93742 6.20501 6.13417C6.44159 5.15383 6.98701 4.20325 8.14726 3.6125C8.62609 3.36883 9.13042 3.2725 9.66876 3.23C10.1858 3.1875 10.8163 3.1875 11.5742 3.1875ZM8.14584 28.6875H23.2362C24.0111 28.6875 24.2038 28.5515 24.2477 28.509C24.2831 28.475 24.4375 28.2894 24.4375 27.4833V26.5625H10.2708C9.70726 26.5625 9.16675 26.7864 8.76824 27.1849C8.36972 27.5834 8.14584 28.1239 8.14584 28.6875Z" fill="#2356CE"/>
<path d="M44.0049 20.0996L43.1846 23H34.2051V22.6924C34.5078 22.6729 34.752 22.6387 34.9375 22.5898C35.1328 22.541 35.2793 22.4629 35.377 22.3555C35.4844 22.248 35.5576 22.1016 35.5967 21.916C35.6357 21.7305 35.6553 21.4912 35.6553 21.1982V13.7568C35.6553 13.4639 35.6357 13.2246 35.5967 13.0391C35.5674 12.8535 35.499 12.707 35.3916 12.5996C35.2842 12.4922 35.1328 12.4141 34.9375 12.3652C34.752 12.3164 34.5078 12.2822 34.2051 12.2627V11.9258H38.9072V12.2627C38.5752 12.2822 38.3066 12.3164 38.1016 12.3652C37.8965 12.4043 37.7402 12.4824 37.6328 12.5996C37.5254 12.707 37.4521 12.8535 37.4131 13.0391C37.374 13.2246 37.3545 13.4639 37.3545 13.7568V21.667C37.3545 21.8135 37.3691 21.9355 37.3984 22.0332C37.4375 22.1211 37.5107 22.1895 37.6182 22.2383C37.7256 22.2871 37.8721 22.3213 38.0576 22.3408C38.2432 22.3506 38.4922 22.3555 38.8047 22.3555H39.918C40.6309 22.3555 41.2217 22.2725 41.6904 22.1064C42.1689 21.9404 42.5596 21.6865 42.8623 21.3447C42.9795 21.208 43.0918 21.0371 43.1992 20.832C43.3164 20.627 43.4434 20.3828 43.5801 20.0996H44.0049ZM48.3848 15.3096C48.9219 15.3096 49.415 15.4023 49.8643 15.5879C50.3135 15.7734 50.6992 16.0371 51.0215 16.3789C51.3535 16.7109 51.6123 17.1064 51.7979 17.5654C51.9834 18.0244 52.0762 18.5322 52.0762 19.0889C52.0762 19.6748 51.9785 20.2168 51.7832 20.7148C51.5977 21.2031 51.3389 21.6328 51.0068 22.0039C50.6748 22.3652 50.2793 22.6484 49.8203 22.8535C49.3711 23.0586 48.8828 23.1611 48.3555 23.1611C47.8281 23.1611 47.3398 23.0635 46.8906 22.8682C46.4414 22.6729 46.0557 22.3994 45.7334 22.0479C45.4111 21.6963 45.1572 21.2812 44.9717 20.8027C44.7861 20.3242 44.6934 19.8018 44.6934 19.2354C44.6934 18.6592 44.7812 18.1318 44.957 17.6533C45.1426 17.165 45.3965 16.75 45.7188 16.4082C46.041 16.0566 46.4268 15.7881 46.876 15.6025C47.335 15.4072 47.8379 15.3096 48.3848 15.3096ZM48.1357 15.7783C47.5498 15.7783 47.0811 16.0176 46.7295 16.4961C46.3779 16.9746 46.2021 17.6094 46.2021 18.4004C46.2021 18.9961 46.2656 19.5771 46.3926 20.1436C46.5195 20.7002 46.7002 21.1982 46.9346 21.6377C47.1104 21.9795 47.3447 22.2432 47.6377 22.4287C47.9307 22.6143 48.248 22.707 48.5898 22.707C49.2051 22.707 49.6836 22.4385 50.0254 21.9014C50.377 21.3545 50.5527 20.6074 50.5527 19.6602C50.5527 18.9473 50.4502 18.2832 50.2451 17.668C50.04 17.0527 49.7617 16.5889 49.4102 16.2764C49.2246 16.1006 49.0293 15.9736 48.8242 15.8955C48.6191 15.8174 48.3896 15.7783 48.1357 15.7783ZM59.0488 16.4961C59.1562 16.7793 59.2295 17.0283 59.2686 17.2432C59.3174 17.4482 59.3418 17.6777 59.3418 17.9316C59.3418 18.2832 59.2734 18.6152 59.1367 18.9277C59 19.2402 58.8145 19.5186 58.5801 19.7627C58.3457 19.9971 58.0723 20.1875 57.7598 20.334C57.4473 20.4707 57.1104 20.5391 56.749 20.5391C56.7002 20.5391 56.6172 20.5342 56.5 20.5244C56.3926 20.5146 56.2656 20.5 56.1191 20.4805L55.7969 20.4365C55.6797 20.4658 55.5625 20.5244 55.4453 20.6123C55.3281 20.6904 55.2207 20.7832 55.123 20.8906C55.0254 20.9883 54.9424 21.0908 54.874 21.1982C54.8154 21.3057 54.7861 21.4033 54.7861 21.4912C54.7861 21.6182 54.8887 21.7207 55.0938 21.7988C55.3086 21.8672 55.6455 21.9111 56.1045 21.9307L58.2578 22.0332C58.873 22.0625 59.3613 22.2383 59.7227 22.5605C60.084 22.873 60.2646 23.2881 60.2646 23.8057C60.2646 24.2939 60.1182 24.7139 59.8252 25.0654C59.5322 25.4268 59.166 25.7246 58.7266 25.959C58.2871 26.1934 57.8135 26.3643 57.3057 26.4717C56.8076 26.5889 56.3486 26.6475 55.9287 26.6475C55.5283 26.6475 55.1523 26.6035 54.8008 26.5156C54.4492 26.4375 54.1416 26.3252 53.8779 26.1787C53.6143 26.0322 53.4043 25.8613 53.248 25.666C53.1016 25.4707 53.0283 25.2607 53.0283 25.0361C53.0283 24.7236 53.1504 24.4111 53.3945 24.0986C53.6484 23.7861 54.0781 23.415 54.6836 22.9854C54.332 22.8193 54.0928 22.6777 53.9658 22.5605C53.8486 22.4336 53.79 22.2773 53.79 22.0918C53.79 21.9258 53.8486 21.7598 53.9658 21.5938C54.0928 21.418 54.293 21.2031 54.5664 20.9492L55.2842 20.2754C54.7178 20.002 54.3125 19.6943 54.0684 19.3525C53.834 19.001 53.7168 18.5615 53.7168 18.0342C53.7168 17.6533 53.79 17.2969 53.9365 16.9648C54.083 16.623 54.2783 16.3301 54.5225 16.0859C54.7764 15.832 55.0742 15.6318 55.416 15.4854C55.7578 15.3389 56.1191 15.2656 56.5 15.2656C56.9492 15.2656 57.3984 15.3486 57.8477 15.5146L58.2285 15.6611C58.3945 15.7197 58.5459 15.7734 58.6826 15.8223C58.8291 15.8613 58.9854 15.8809 59.1514 15.8809H60.4404V16.4961H59.0488ZM55.0352 23.0439C54.8691 23.2393 54.7324 23.4053 54.625 23.542C54.5176 23.6787 54.4346 23.8008 54.376 23.9082C54.3174 24.0156 54.2734 24.1133 54.2441 24.2012C54.2246 24.2891 54.2148 24.3818 54.2148 24.4795C54.2148 24.8506 54.4297 25.1436 54.8594 25.3584C55.2988 25.583 55.8896 25.6953 56.6318 25.6953C57.1104 25.6953 57.5449 25.6562 57.9355 25.5781C58.3262 25.5 58.6582 25.3877 58.9316 25.2412C59.2148 25.1045 59.4297 24.9336 59.5762 24.7285C59.7324 24.5332 59.8105 24.3135 59.8105 24.0693C59.8105 23.7666 59.6543 23.5566 59.3418 23.4395C59.0293 23.3223 58.4971 23.2637 57.7451 23.2637C57.54 23.2637 57.3057 23.2539 57.042 23.2344C56.7881 23.2246 56.5342 23.21 56.2803 23.1904C56.0361 23.1709 55.8018 23.1465 55.5771 23.1172C55.3623 23.0977 55.1816 23.0732 55.0352 23.0439ZM55.1084 17.4043C55.1084 17.8047 55.1475 18.1758 55.2256 18.5176C55.3135 18.8496 55.4307 19.1377 55.5771 19.3818C55.7334 19.6162 55.9141 19.8018 56.1191 19.9385C56.334 20.0654 56.5732 20.1289 56.8369 20.1289C57.208 20.1289 57.5059 19.9922 57.7305 19.7188C57.9551 19.4355 58.0674 19.0596 58.0674 18.5908C58.0674 18.249 58.0234 17.9023 57.9355 17.5508C57.8574 17.1992 57.7402 16.877 57.584 16.584C57.4473 16.3203 57.2715 16.1152 57.0566 15.9688C56.8418 15.8125 56.6074 15.7344 56.3535 15.7344C55.9629 15.7344 55.6553 15.8809 55.4307 16.1738C55.2158 16.4668 55.1084 16.8574 55.1084 17.3457V17.4043ZM65.1133 15.3096C65.6504 15.3096 66.1436 15.4023 66.5928 15.5879C67.042 15.7734 67.4277 16.0371 67.75 16.3789C68.082 16.7109 68.3408 17.1064 68.5264 17.5654C68.7119 18.0244 68.8047 18.5322 68.8047 19.0889C68.8047 19.6748 68.707 20.2168 68.5117 20.7148C68.3262 21.2031 68.0674 21.6328 67.7354 22.0039C67.4033 22.3652 67.0078 22.6484 66.5488 22.8535C66.0996 23.0586 65.6113 23.1611 65.084 23.1611C64.5566 23.1611 64.0684 23.0635 63.6191 22.8682C63.1699 22.6729 62.7842 22.3994 62.4619 22.0479C62.1396 21.6963 61.8857 21.2812 61.7002 20.8027C61.5146 20.3242 61.4219 19.8018 61.4219 19.2354C61.4219 18.6592 61.5098 18.1318 61.6855 17.6533C61.8711 17.165 62.125 16.75 62.4473 16.4082C62.7695 16.0566 63.1553 15.7881 63.6045 15.6025C64.0635 15.4072 64.5664 15.3096 65.1133 15.3096ZM64.8643 15.7783C64.2783 15.7783 63.8096 16.0176 63.458 16.4961C63.1064 16.9746 62.9307 17.6094 62.9307 18.4004C62.9307 18.9961 62.9941 19.5771 63.1211 20.1436C63.248 20.7002 63.4287 21.1982 63.6631 21.6377C63.8389 21.9795 64.0732 22.2432 64.3662 22.4287C64.6592 22.6143 64.9766 22.707 65.3184 22.707C65.9336 22.707 66.4121 22.4385 66.7539 21.9014C67.1055 21.3545 67.2812 20.6074 67.2812 19.6602C67.2812 18.9473 67.1787 18.2832 66.9736 17.668C66.7686 17.0527 66.4902 16.5889 66.1387 16.2764C65.9531 16.1006 65.7578 15.9736 65.5527 15.8955C65.3477 15.8174 65.1182 15.7783 64.8643 15.7783ZM74.0635 18.7227V19.7773H69.9473V18.7227H74.0635ZM77.4326 16.6865C77.5205 16.4814 77.6426 16.291 77.7988 16.1152C77.9551 15.9395 78.1357 15.7881 78.3408 15.6611C78.5459 15.5342 78.7705 15.4365 79.0146 15.3682C79.2588 15.2998 79.5078 15.2656 79.7617 15.2656C80.1816 15.2656 80.5674 15.3633 80.9189 15.5586C81.2803 15.7441 81.5928 16.0029 81.8564 16.335C82.1201 16.6572 82.3252 17.043 82.4717 17.4922C82.6279 17.9414 82.7061 18.4248 82.7061 18.9424C82.7061 19.5479 82.6035 20.1094 82.3984 20.627C82.2031 21.1348 81.9297 21.5791 81.5781 21.96C81.2266 22.3311 80.8115 22.624 80.333 22.8389C79.8643 23.0537 79.3516 23.1611 78.7949 23.1611C78.4531 23.1611 78.1162 23.127 77.7842 23.0586C77.4521 23 77.1543 22.9219 76.8906 22.8242C76.6367 22.7266 76.4268 22.6143 76.2607 22.4873C76.1045 22.3604 76.0264 22.2285 76.0264 22.0918V13.4199C76.0264 13.0684 75.9727 12.8389 75.8652 12.7314C75.7676 12.6143 75.5527 12.5557 75.2207 12.5557C75.1621 12.5557 75.1084 12.5605 75.0596 12.5703C75.0205 12.5703 74.9766 12.5752 74.9277 12.585V12.3066L75.4258 12.1895C75.8164 12.1016 76.1484 12.0137 76.4219 11.9258C76.6953 11.8281 77.0078 11.7109 77.3594 11.5742L77.4326 11.6182V16.6865ZM77.4326 21.8428C77.4326 21.9502 77.4766 22.0527 77.5645 22.1504C77.6523 22.2383 77.7695 22.3213 77.916 22.3994C78.0723 22.4678 78.248 22.5264 78.4434 22.5752C78.6387 22.6143 78.8438 22.6338 79.0586 22.6338C79.752 22.6338 80.2842 22.3799 80.6553 21.8721C81.0361 21.3643 81.2266 20.6465 81.2266 19.7188C81.2266 19.4062 81.2021 19.1035 81.1533 18.8105C81.1143 18.5078 81.0508 18.2246 80.9629 17.9609C80.8848 17.6973 80.7871 17.4629 80.6699 17.2578C80.5527 17.0527 80.4258 16.8867 80.2891 16.7598C80.123 16.6035 79.9375 16.4961 79.7324 16.4375C79.5273 16.3691 79.3125 16.335 79.0879 16.335C78.873 16.335 78.6631 16.3691 78.458 16.4375C78.2627 16.5059 78.0869 16.5986 77.9307 16.7158C77.7842 16.8232 77.6621 16.9551 77.5645 17.1113C77.4766 17.2578 77.4326 17.4141 77.4326 17.5801V21.8428ZM87.4229 15.3096C87.96 15.3096 88.4531 15.4023 88.9023 15.5879C89.3516 15.7734 89.7373 16.0371 90.0596 16.3789C90.3916 16.7109 90.6504 17.1064 90.8359 17.5654C91.0215 18.0244 91.1143 18.5322 91.1143 19.0889C91.1143 19.6748 91.0166 20.2168 90.8213 20.7148C90.6357 21.2031 90.377 21.6328 90.0449 22.0039C89.7129 22.3652 89.3174 22.6484 88.8584 22.8535C88.4092 23.0586 87.9209 23.1611 87.3936 23.1611C86.8662 23.1611 86.3779 23.0635 85.9287 22.8682C85.4795 22.6729 85.0938 22.3994 84.7715 22.0479C84.4492 21.6963 84.1953 21.2812 84.0098 20.8027C83.8242 20.3242 83.7314 19.8018 83.7314 19.2354C83.7314 18.6592 83.8193 18.1318 83.9951 17.6533C84.1807 17.165 84.4346 16.75 84.7568 16.4082C85.0791 16.0566 85.4648 15.7881 85.9141 15.6025C86.373 15.4072 86.876 15.3096 87.4229 15.3096ZM87.1738 15.7783C86.5879 15.7783 86.1191 16.0176 85.7676 16.4961C85.416 16.9746 85.2402 17.6094 85.2402 18.4004C85.2402 18.9961 85.3037 19.5771 85.4307 20.1436C85.5576 20.7002 85.7383 21.1982 85.9727 21.6377C86.1484 21.9795 86.3828 22.2432 86.6758 22.4287C86.9688 22.6143 87.2861 22.707 87.6279 22.707C88.2432 22.707 88.7217 22.4385 89.0635 21.9014C89.415 21.3545 89.5908 20.6074 89.5908 19.6602C89.5908 18.9473 89.4883 18.2832 89.2832 17.668C89.0781 17.0527 88.7998 16.5889 88.4482 16.2764C88.2627 16.1006 88.0674 15.9736 87.8623 15.8955C87.6572 15.8174 87.4277 15.7783 87.1738 15.7783ZM95.7871 15.3096C96.3242 15.3096 96.8174 15.4023 97.2666 15.5879C97.7158 15.7734 98.1016 16.0371 98.4238 16.3789C98.7559 16.7109 99.0146 17.1064 99.2002 17.5654C99.3857 18.0244 99.4785 18.5322 99.4785 19.0889C99.4785 19.6748 99.3809 20.2168 99.1855 20.7148C99 21.2031 98.7412 21.6328 98.4092 22.0039C98.0771 22.3652 97.6816 22.6484 97.2227 22.8535C96.7734 23.0586 96.2852 23.1611 95.7578 23.1611C95.2305 23.1611 94.7422 23.0635 94.293 22.8682C93.8438 22.6729 93.458 22.3994 93.1357 22.0479C92.8135 21.6963 92.5596 21.2812 92.374 20.8027C92.1885 20.3242 92.0957 19.8018 92.0957 19.2354C92.0957 18.6592 92.1836 18.1318 92.3594 17.6533C92.5449 17.165 92.7988 16.75 93.1211 16.4082C93.4434 16.0566 93.8291 15.7881 94.2783 15.6025C94.7373 15.4072 95.2402 15.3096 95.7871 15.3096ZM95.5381 15.7783C94.9521 15.7783 94.4834 16.0176 94.1318 16.4961C93.7803 16.9746 93.6045 17.6094 93.6045 18.4004C93.6045 18.9961 93.668 19.5771 93.7949 20.1436C93.9219 20.7002 94.1025 21.1982 94.3369 21.6377C94.5127 21.9795 94.7471 22.2432 95.04 22.4287C95.333 22.6143 95.6504 22.707 95.9922 22.707C96.6074 22.707 97.0859 22.4385 97.4277 21.9014C97.7793 21.3545 97.9551 20.6074 97.9551 19.6602C97.9551 18.9473 97.8525 18.2832 97.6475 17.668C97.4424 17.0527 97.1641 16.5889 96.8125 16.2764C96.627 16.1006 96.4316 15.9736 96.2266 15.8955C96.0215 15.8174 95.792 15.7783 95.5381 15.7783ZM100.094 12.3066L100.592 12.1895C100.846 12.1211 101.065 12.0625 101.251 12.0137C101.437 11.9551 101.607 11.9014 101.764 11.8525C101.93 11.8037 102.081 11.7598 102.218 11.7207C102.364 11.6719 102.521 11.623 102.687 11.5742L102.745 11.6182V18.6494L105.045 16.5986C105.299 16.3643 105.426 16.1641 105.426 15.998C105.426 15.9004 105.367 15.832 105.25 15.793C105.133 15.7539 104.913 15.7246 104.591 15.7051V15.4707H108.004V15.7344C107.74 15.7246 107.501 15.7441 107.286 15.793C107.071 15.832 106.837 15.9248 106.583 16.0713C106.329 16.2178 106.031 16.4326 105.689 16.7158C105.348 16.9893 104.913 17.3604 104.386 17.8291L103.902 18.2686L106.48 21.5352C106.822 21.9648 107.135 22.2725 107.418 22.458C107.711 22.6338 108.043 22.7363 108.414 22.7656V23H104.781V22.7656H105.089C105.196 22.7656 105.279 22.7412 105.338 22.6924C105.406 22.6436 105.44 22.5801 105.44 22.502C105.44 22.4531 105.426 22.4043 105.396 22.3555C105.377 22.2969 105.328 22.2285 105.25 22.1504C105.191 22.0723 105.157 22.0234 105.147 22.0039L105.089 21.9307L102.745 18.8105V21.8867C102.745 22.1699 102.813 22.3799 102.95 22.5166C103.097 22.6436 103.336 22.7168 103.668 22.7363L104.005 22.7656V23H100.094V22.7656C100.387 22.7168 100.616 22.6729 100.782 22.6338C100.958 22.585 101.085 22.5264 101.163 22.458C101.241 22.3799 101.29 22.2773 101.31 22.1504C101.329 22.0234 101.339 21.8525 101.339 21.6377V13.5664C101.339 13.166 101.29 12.8975 101.192 12.7607C101.095 12.624 100.904 12.5557 100.621 12.5557C100.543 12.5557 100.46 12.5605 100.372 12.5703C100.294 12.5703 100.201 12.5752 100.094 12.585V12.3066Z" fill="#2356CE"/>
</svg>
