<svg width="22" height="28" viewBox="0 0 22 28" fill="none" xmlns="http://www.w3.org/2000/svg">
<path d="M5.57417 0.1875H18.65C19.5949 0.1875 20.5427 0.341917 21.2043 1.02758C21.8559 1.70475 21.9792 2.64258 21.9792 3.51667V20.2333C21.9792 21.0026 21.8772 21.7591 21.4833 22.3711C21.2561 22.7241 20.938 23.0094 20.5625 23.197V24.4833C20.5625 25.4268 20.4095 26.3746 19.7253 27.0362C19.0481 27.6907 18.1103 27.8125 17.2362 27.8125H2.14584C1.58226 27.8125 1.04175 27.5886 0.643239 27.1901C0.244724 26.7916 0.020841 26.2511 0.020841 25.6875V5.52408C0.016591 4.81858 0.0123412 3.93742 0.205008 3.13417C0.441591 2.15383 0.987007 1.20325 2.14726 0.6125C2.62609 0.368833 3.13042 0.2725 3.66876 0.23C4.18584 0.1875 4.81626 0.1875 5.57417 0.1875ZM2.14584 25.6875H17.2362C18.0111 25.6875 18.2038 25.5515 18.2477 25.509C18.2831 25.475 18.4375 25.2894 18.4375 24.4833V23.5625H4.27084C3.70726 23.5625 3.16675 23.7864 2.76824 24.1849C2.36972 24.5834 2.14584 25.1239 2.14584 25.6875Z" fill="#2356CE"/>
</svg>
