<svg version="1.1" xmlns="http://www.w3.org/2000/svg" xmlns:xlink="http://www.w3.org/1999/xlink" width="1940.000000pt" height="765.000000pt" viewBox="0,0,256,100.94531"><g fill="#ffffff" fill-rule="nonzero" stroke="none" stroke-width="1" stroke-linecap="butt" stroke-linejoin="miter" stroke-miterlimit="10" stroke-dasharray="" stroke-dashoffset="0" font-family="none" font-weight="none" font-size="none" text-anchor="none" style="mix-blend-mode: normal"><g transform="translate(0.17965,-0.11374) scale(0.13196,0.13196)"><g transform="translate(0,765) scale(0.1,-0.1)"><path d="M33,7487c-1,-90 2,-118 13,-128c11,-9 18,-8 31,2c13,12 272,15 1552,21c1462,6 14883,11 16793,5l906,-2l6,29c10,49 7,122 -6,137c-11,13 -52,14 -323,6c-175,-4 -4342,-6 -9543,-4c-8994,5 -9233,5 -9253,23c-16,14 -40,20 -98,22l-76,4zM440,7507c133,-8 906,-26 1193,-26c264,-1 277,0 277,18c0,18 169,18 6973,19c7721,1 9187,-2 9187,-24c0,-11 19,-14 80,-14c73,0 80,-2 80,-20c0,-20 7,-20 320,-20c313,0 320,0 320,20c0,19 7,20 160,20c150,0 160,-1 160,-19c0,-18 -14,-19 -207,-27c-410,-16 -18833,-7 -18849,9c-6,6 11,42 30,64c11,13 76,13 276,0z"></path><path d="M51,6686c-13,-16 -15,-4093 -2,-4114c6,-11 292,-12 1592,-8c1634,5 1807,9 1784,47c-4,5 51,9 135,9c106,0 146,4 163,15c12,8 51,17 86,21c35,3 79,12 98,20c18,8 38,12 43,9c6,-3 7,1 4,9c-5,12 0,16 19,16c24,0 118,37 127,50c3,4 15,12 28,19c12,6 22,18 22,26c0,17 30,34 47,28c7,-3 9,4 5,19c-5,21 -4,22 11,9c11,-9 17,-10 17,-2c0,6 7,11 15,11c8,0 14,3 13,8c-2,4 6,17 17,29c14,17 21,19 27,10c5,-8 8,-6 8,6c0,10 5,15 10,12c6,-4 7,-11 4,-17c-4,-7 -2,-8 4,-4c8,5 9,13 3,24c-13,26 -3,40 27,35c20,-4 23,-2 12,6c-12,8 -5,20 40,69c30,33 61,58 69,56c8,-3 11,1 7,11c-3,10 1,15 12,16c10,0 12,3 5,6c-7,2 -13,10 -13,16c0,5 3,7 6,4c17,-17 69,69 79,128c3,22 12,65 20,95c36,143 45,292 24,406c-9,54 -126,311 -154,340c-5,6 -21,26 -35,44c-14,19 -38,45 -54,59c-16,14 -34,31 -40,38c-134,148 -176,180 -250,189c-17,3 -38,13 -48,24c-10,11 -26,20 -35,20c-15,0 -37,9 -148,61c-22,10 -65,21 -95,24c-95,10 -125,64 -68,122c28,29 39,33 82,33c28,0 70,9 93,19c30,14 43,16 47,8c3,-9 5,-9 5,0c1,6 17,17 36,23c24,8 35,18 35,30c0,16 7,19 45,18c30,0 43,-4 38,-12c-3,-6 5,-1 18,10c13,12 34,27 46,33c15,7 20,17 16,31c-4,13 0,20 9,20c8,0 45,30 83,67c40,39 70,62 73,54c2,-7 21,6 46,33c30,32 51,68 71,123c15,43 32,84 38,91c5,7 13,43 18,80c4,37 13,107 19,156c22,171 -4,403 -56,512c-19,38 -34,76 -34,82c0,7 -10,16 -23,21c-12,5 -32,26 -42,47c-20,37 -130,154 -147,154c-4,0 -26,18 -47,39c-22,22 -41,37 -44,35c-2,-3 -17,8 -33,23c-16,16 -54,42 -84,57c-30,16 -59,35 -63,42c-4,8 -22,14 -38,14c-17,0 -67,16 -112,34c-65,28 -105,37 -195,46c-62,7 -128,16 -145,21c-18,5 -79,12 -137,14c-58,3 -152,7 -210,10c-58,3 -206,9 -330,15c-124,5 -784,10 -1467,9c-1024,0 -1243,-2 -1252,-13zM2487,5890c94,-10 163,-34 163,-56c0,-7 13,-15 28,-19c31,-6 92,-57 92,-76c0,-7 7,-21 17,-31c9,-10 20,-37 24,-61c4,-23 12,-60 18,-82c13,-50 5,-148 -17,-200c-9,-22 -38,-73 -65,-112c-57,-86 -118,-131 -191,-143c-28,-4 -208,-9 -400,-9c-191,-1 -359,-4 -371,-7c-17,-4 -26,0 -34,15c-6,11 -10,24 -9,28c1,4 -2,24 -6,43c-11,54 -13,160 -3,160c5,0 5,6 -1,13c-7,8 -11,97 -12,242c-2,289 -2,274 11,255c8,-12 9,-11 7,6c-2,11 3,28 10,36c11,14 53,15 330,12c174,-3 359,-9 409,-14zM4147,4884c-3,-3 -12,-4 -19,-1c-8,3 -5,6 6,6c11,1 17,-2 13,-5zM3823,4753c-7,-2 -19,-2 -25,0c-7,3 -2,5 12,5c14,0 19,-2 13,-5zM2500,4195c15,-8 51,-17 81,-20c30,-3 64,-8 77,-11c28,-6 112,-81 112,-100c0,-8 9,-31 20,-51c11,-21 20,-51 20,-68c0,-20 3,-26 9,-17c23,36 30,-146 7,-190c-8,-14 -17,-45 -21,-68c-4,-23 -13,-44 -21,-47c-8,-3 -14,-11 -14,-18c0,-19 -83,-108 -117,-125c-15,-8 -39,-22 -53,-31c-32,-22 -186,-31 -539,-34c-247,-2 -266,-1 -298,17c-20,12 -34,29 -34,41c-5,68 -8,209 -9,417c-1,308 -2,288 10,270c8,-12 10,-11 10,8c0,12 5,22 11,22c5,0 8,4 5,9c-4,5 -2,11 4,13c5,1 168,2 362,0c274,-3 358,-6 378,-17zM3390,2610c0,-5 -4,-10 -10,-10c-5,0 -10,5 -10,10c0,6 5,10 10,10c6,0 10,-4 10,-10z"></path><path d="M1732,3860c0,-14 2,-19 5,-12c2,6 2,18 0,25c-3,6 -5,1 -5,-13z"></path><path d="M17915,6619c-440,-4 -813,-8 -830,-11c-41,-7 -47,-39 -25,-135c10,-43 22,-105 26,-138c4,-33 13,-77 20,-99c8,-21 14,-49 14,-63c0,-13 9,-51 21,-85c11,-34 25,-99 30,-146c5,-47 14,-91 19,-97c5,-6 12,-42 15,-80c4,-39 12,-88 20,-110c19,-57 37,-202 31,-258c-2,-26 -1,-45 4,-42c15,9 22,-28 26,-133c2,-70 8,-110 19,-126c9,-13 20,-55 24,-93c8,-65 32,-174 52,-239c5,-17 14,-68 20,-113c5,-46 16,-102 24,-124c7,-23 16,-62 20,-87c4,-25 13,-67 21,-94c8,-27 14,-72 14,-98c0,-32 9,-68 25,-101c17,-36 26,-78 30,-137c4,-47 9,-92 12,-100c8,-23 13,-56 19,-157c4,-51 10,-93 14,-93c4,0 12,-11 18,-25l12,-26l325,3c284,3 326,5 341,19c16,16 30,70 59,214c7,39 20,99 29,135c9,36 16,83 16,106c0,22 6,63 14,90c8,27 17,71 21,98c4,27 13,59 20,70c7,12 16,62 19,111c12,171 19,220 37,256c10,21 20,59 23,85c7,74 35,239 44,265c5,13 13,62 17,109c4,47 13,100 21,118c7,18 17,57 20,85c4,29 13,66 19,82c7,17 16,64 20,105c4,41 13,85 21,98c8,12 17,59 20,105c6,98 39,293 60,361c9,28 19,86 21,130c3,45 9,86 14,91c9,12 28,120 33,190c2,28 6,59 8,70c3,18 -3,20 -57,20c-33,0 -420,-3 -860,-6zM18695,6580c-3,-5 -15,-10 -25,-10c-10,0 -22,5 -25,10c-4,6 7,10 25,10c18,0 29,-4 25,-10zM18702,6233c4,-38 -3,-83 -12,-83c-14,0 -22,40 -15,76c7,41 22,45 27,7zM17675,3690c8,-36 0,-50 -26,-50c-14,0 -19,7 -19,28c0,26 15,52 31,52c4,0 10,-13 14,-30z"></path><path d="M16425,6584c-22,-13 -52,-28 -67,-35c-16,-6 -28,-15 -28,-20c0,-5 -6,-9 -13,-9c-7,0 -29,-13 -47,-30c-18,-16 -37,-30 -42,-30c-9,0 -14,-4 -63,-44c-69,-58 -93,-73 -145,-95c-30,-13 -74,-39 -99,-57c-24,-19 -47,-34 -51,-34c-4,0 -36,-23 -71,-51c-35,-29 -79,-58 -98,-66c-19,-8 -40,-21 -48,-29c-8,-8 -20,-14 -27,-14c-8,0 -20,-7 -27,-17c-8,-9 -29,-22 -46,-30c-18,-7 -33,-17 -33,-22c0,-5 -14,-12 -30,-16c-17,-4 -28,-10 -25,-15c3,-4 -5,-10 -18,-14c-12,-3 -54,-31 -92,-61c-39,-31 -80,-60 -91,-65c-12,-5 -59,-34 -104,-64c-45,-31 -84,-56 -87,-56c-3,0 -18,-11 -35,-25c-16,-14 -38,-25 -49,-25c-10,0 -19,-4 -19,-9c0,-5 -8,-12 -19,-16c-10,-3 -28,-13 -39,-23c-11,-9 -31,-26 -44,-37c-44,-38 -103,-75 -120,-75c-9,0 -18,-3 -20,-7c-4,-11 -96,-73 -107,-73c-4,0 -28,-15 -52,-34c-24,-18 -54,-36 -66,-40c-13,-4 -23,-11 -23,-16c0,-14 -53,-60 -69,-60c-15,0 -109,-55 -126,-74c-16,-18 -120,-85 -148,-95c-14,-6 -45,-24 -68,-41c-23,-16 -52,-30 -64,-30c-12,0 -32,-9 -45,-20c-23,-20 -80,-28 -80,-11c0,5 -11,12 -24,15c-14,3 -32,14 -42,23c-9,10 -23,18 -31,19c-9,2 -25,11 -37,22c-11,11 -31,23 -43,27c-13,3 -23,13 -23,21c0,8 -6,14 -13,14c-11,0 -85,51 -143,99c-6,5 -24,16 -40,25c-16,9 -47,28 -69,41c-22,14 -49,29 -60,34c-11,5 -31,20 -43,34c-13,14 -38,31 -55,38c-18,7 -41,20 -52,29c-11,10 -30,21 -42,24c-21,7 -42,23 -123,94c-21,17 -43,32 -49,32c-6,0 -11,5 -11,10c0,6 -6,10 -13,10c-15,0 -98,58 -110,77c-4,7 -14,13 -22,13c-7,0 -20,6 -27,13c-28,27 -98,72 -168,109c-14,7 -42,29 -64,50c-21,21 -42,38 -45,38c-4,0 -23,14 -42,31c-33,30 -74,55 -131,81c-16,7 -28,15 -28,19c0,4 -16,10 -35,13c-19,4 -38,13 -42,20c-5,7 -26,24 -48,38c-22,14 -50,37 -62,52c-13,14 -29,26 -37,26c-8,0 -17,7 -20,16c-3,8 -10,13 -15,10c-5,-4 -23,5 -39,19c-16,13 -41,29 -56,35c-18,6 -25,14 -20,22c4,7 4,10 -1,6c-4,-4 -22,4 -40,17c-17,14 -39,25 -47,25c-8,0 -23,9 -34,21c-10,12 -38,32 -61,46c-24,14 -43,29 -43,34c0,5 -12,14 -27,20c-27,10 -44,23 -85,67c-12,12 -39,25 -61,29c-21,3 -44,12 -51,19c-7,7 -34,15 -59,19l-47,7v-108c0,-60 -6,-145 -14,-189c-7,-44 -14,-147 -15,-230c-1,-157 -15,-265 -34,-277c-9,-5 -11,-94 -9,-335c2,-191 -2,-378 -8,-448c-12,-123 -14,-163 -30,-515c-5,-113 -11,-223 -14,-245c-2,-22 -7,-161 -11,-310c-3,-148 -10,-308 -15,-355c-5,-47 -12,-128 -15,-180c-3,-52 -10,-120 -16,-150c-5,-30 -14,-188 -20,-350c-5,-162 -12,-321 -15,-353l-6,-58l69,-1c37,0 370,-1 738,-2l670,-1l7,145c4,80 12,174 18,210c7,36 13,211 15,390c3,179 7,342 11,363c3,20 8,49 10,65c3,15 10,101 17,192c10,134 15,165 27,166c28,1 75,-19 110,-47c19,-15 54,-32 76,-38c23,-6 47,-18 54,-26c7,-8 17,-15 22,-15c12,0 71,-42 81,-58c8,-12 107,-62 124,-62c4,0 13,-8 20,-19c6,-10 34,-30 61,-43c27,-14 63,-34 80,-46c16,-12 34,-22 39,-22c5,0 25,-16 43,-35c22,-22 51,-40 77,-47c24,-6 43,-14 43,-19c0,-5 5,-9 11,-9c6,0 32,-17 58,-38c87,-70 114,-80 236,-83c105,-2 165,5 165,20c0,4 15,13 34,19c19,7 50,27 68,45c18,17 60,45 93,62c43,21 61,36 63,53c2,14 10,22 23,22c23,0 69,28 69,42c0,18 29,38 54,38c14,0 26,5 26,10c0,6 9,10 20,10c11,0 28,9 37,20c10,11 25,20 35,20c9,0 25,8 35,18c23,23 69,52 84,52c6,0 29,15 51,34c22,19 61,45 87,57c25,12 58,30 72,40c14,9 37,21 51,24c35,9 45,-22 53,-165c3,-63 13,-160 21,-214c8,-55 14,-161 14,-235c0,-152 15,-385 30,-476c6,-33 11,-135 13,-227c1,-106 6,-171 13,-178c8,-8 236,-12 800,-13l789,-2v190c0,105 -4,255 -9,335c-9,163 -11,204 -20,660c-11,553 -15,662 -26,745c-6,44 -12,147 -15,230c-10,324 -18,532 -21,580c-12,154 -14,219 -19,525c-3,184 -10,364 -15,400c-5,36 -14,146 -21,245c-6,99 -15,185 -20,190c-17,17 -63,12 -104,-11z"></path><path d="M7668,6503c-14,-21 -36,-55 -49,-75c-13,-21 -29,-38 -36,-38c-6,0 -14,-8 -17,-17c-7,-22 -66,-89 -66,-77c-1,5 -7,-4 -15,-21c-8,-16 -20,-39 -27,-50c-7,-11 -28,-45 -47,-75c-33,-53 -120,-164 -144,-185c-7,-5 -25,-30 -41,-55c-17,-25 -35,-49 -41,-55c-5,-5 -31,-47 -57,-91c-26,-45 -61,-97 -78,-115c-17,-19 -40,-51 -52,-73c-11,-21 -36,-55 -56,-75c-20,-20 -50,-60 -67,-89c-16,-29 -38,-63 -48,-75c-33,-41 -82,-104 -137,-178c-30,-40 -71,-91 -90,-113c-32,-38 -47,-59 -74,-111c-21,-40 -112,-160 -151,-200c-22,-23 -41,-45 -41,-49c-7,-34 -14,-47 -22,-42c-5,3 -17,-12 -27,-34c-10,-22 -21,-40 -25,-40c-4,0 -13,-12 -19,-27c-6,-16 -30,-48 -52,-73c-23,-25 -57,-70 -77,-100c-20,-30 -40,-57 -44,-60c-15,-11 -58,-82 -64,-105c-3,-14 -17,-34 -30,-44c-13,-10 -56,-66 -96,-124c-40,-58 -100,-139 -133,-181c-33,-41 -71,-94 -85,-118c-14,-23 -50,-70 -80,-104c-30,-34 -63,-72 -73,-85c-10,-13 -29,-37 -42,-54c-14,-16 -28,-45 -31,-62c-3,-18 -10,-31 -14,-28c-4,3 -13,-8 -19,-23c-7,-16 -24,-42 -39,-58c-15,-17 -40,-50 -57,-75c-16,-24 -46,-63 -67,-86c-21,-24 -38,-49 -38,-57c0,-8 -12,-25 -28,-38c-26,-22 -72,-81 -109,-141c-10,-16 -49,-70 -86,-120c-38,-51 -77,-108 -87,-127c-10,-20 -34,-53 -54,-75c-20,-21 -36,-45 -36,-53c0,-8 -8,-21 -17,-28c-10,-7 -14,-16 -10,-21c10,-9 1181,-11 1525,-2l222,5l35,54c19,30 40,70 46,89c13,38 46,99 67,120c7,7 15,26 19,41c3,16 13,30 24,33c21,6 26,43 7,50c-10,3 -10,7 1,20c7,10 19,17 25,17c6,0 17,9 24,21c7,12 16,18 19,15c3,-3 14,-1 24,5c12,6 350,9 930,9h912l43,-28c31,-20 47,-39 60,-72c9,-25 24,-52 34,-60c23,-21 60,-87 60,-109c0,-9 9,-27 20,-38c10,-12 22,-33 26,-48c4,-14 15,-31 24,-37c10,-7 16,-16 14,-22c-2,-6 7,-24 20,-39l22,-28l873,-3c479,-1 874,1 876,4c4,7 -15,32 -100,129c-45,51 -79,101 -69,101c4,0 -6,10 -21,22c-15,12 -34,37 -42,57c-8,20 -28,55 -44,79c-16,24 -29,45 -29,49c0,9 -101,127 -121,141c-22,15 -89,114 -89,131c0,7 -28,47 -63,90c-65,79 -127,165 -127,175c0,3 -20,27 -45,54c-25,26 -48,57 -51,70c-4,12 -10,22 -14,22c-4,0 -20,19 -36,43c-15,23 -37,52 -48,64c-11,13 -17,25 -14,29c7,6 -6,22 -92,113c-32,35 -62,73 -66,85c-7,22 -54,97 -66,106c-4,3 -14,22 -23,43c-8,20 -26,44 -40,53c-14,9 -28,27 -31,40c-3,13 -15,24 -26,26c-12,2 -28,17 -37,34c-9,17 -31,48 -48,69c-18,21 -30,42 -27,47c3,4 0,8 -5,8c-6,0 -11,6 -11,14c0,8 -20,36 -45,63c-25,26 -45,51 -45,55c0,10 -59,96 -71,103c-5,4 -9,13 -9,20c0,8 -15,30 -34,48c-36,36 -62,77 -58,90c1,5 -2,6 -8,2c-5,-3 -10,-1 -10,5c0,6 -18,30 -40,54c-22,24 -43,57 -46,75c-4,17 -13,31 -20,31c-8,0 -14,6 -14,13c-1,14 -56,77 -68,77c-10,0 -37,51 -33,63c1,5 -3,5 -9,2c-7,-4 -14,2 -17,14c-3,12 -9,21 -14,21c-11,0 -50,75 -44,84c3,3 2,4 -1,2c-9,-7 -57,52 -90,109c-15,28 -32,52 -36,53c-4,2 -8,10 -8,17c0,8 -8,20 -17,27c-10,7 -31,33 -48,58c-16,25 -35,52 -42,60c-44,52 -63,80 -63,94c0,9 -7,19 -15,22c-8,3 -29,31 -47,61c-18,30 -37,62 -43,71c-5,10 -33,40 -62,68c-28,29 -59,67 -67,85c-8,19 -35,57 -60,84c-28,30 -44,56 -41,65c4,8 3,11 -1,7c-14,-14 -54,37 -61,76c-3,22 -13,41 -22,44c-17,7 -60,53 -61,66c0,5 -6,14 -12,21c-7,7 -26,30 -43,51c-16,22 -37,46 -46,54c-9,9 -24,30 -32,47c-21,42 -79,84 -115,84c-23,0 -35,-8 -54,-37zM7740,6500c0,-5 -7,-10 -15,-10c-8,0 -15,5 -15,10c0,6 7,10 15,10c8,0 15,-4 15,-10zM7773,4581c15,-22 27,-44 27,-49c0,-6 19,-31 43,-57c24,-25 56,-72 72,-103c16,-31 33,-61 37,-67c17,-21 58,-86 58,-93c0,-4 16,-38 35,-77c19,-38 35,-82 35,-97c0,-15 9,-34 23,-45c36,-29 97,-126 97,-154c0,-52 -24,-54 -460,-52c-422,3 -450,6 -428,47c10,19 10,20 -5,8c-14,-12 -15,-10 -7,19c5,18 22,49 38,68c15,20 37,59 49,86c35,84 42,99 63,130c26,40 50,91 50,108c0,8 7,20 15,27c8,7 15,21 15,31c0,10 4,20 9,24c17,10 71,95 71,110c0,8 9,20 20,27c11,7 20,19 20,27c0,23 50,102 60,96c6,-3 7,1 4,9c-13,33 31,15 59,-23zM8930,2608c0,-19 -2,-20 -10,-8c-13,19 -13,30 0,30c6,0 10,-10 10,-22zM4958,2567c26,-27 20,-37 -20,-37c-23,0 -28,4 -28,23c0,43 17,47 48,14z"></path><path d="M19096,6507c-13,-9 -15,-18 -8,-36c9,-26 16,-21 26,22c7,31 6,32 -18,14z"></path><path d="M19080,6425c0,-8 5,-15 10,-15c6,0 10,7 10,15c0,8 -4,15 -10,15c-5,0 -10,-7 -10,-15z"></path><path d="M17822,3230c-53,-4 -76,-9 -82,-21c-5,-9 -36,-28 -70,-43c-33,-15 -60,-31 -60,-35c0,-5 -16,-26 -35,-47c-77,-85 -86,-112 -88,-250c-2,-101 1,-128 13,-137c20,-16 70,-90 70,-104c0,-6 27,-22 60,-37c33,-15 60,-31 60,-35c0,-5 16,-12 36,-16c21,-3 48,-13 60,-22c13,-8 24,-12 24,-8c0,4 7,1 16,-6c31,-26 225,-11 319,24c55,20 161,94 192,133c26,34 43,70 61,134c14,47 13,142 -2,171c-9,18 -16,45 -16,62c0,21 -11,39 -39,66c-56,52 -131,106 -141,104c-5,-2 -24,13 -43,31l-33,35l-114,3c-63,2 -148,1 -188,-2zM17860,2511c0,-6 -4,-13 -10,-16c-5,-3 -10,1 -10,9c0,9 5,16 10,16c6,0 10,-4 10,-9z"></path><path d="M4450,3061c-25,-24 -28,-30 -14,-35c23,-9 24,-8 24,15c0,12 8,28 18,35c9,7 14,14 9,14c-4,0 -21,-13 -37,-29z"></path><path d="M4393,3006c-6,-7 -8,-17 -5,-22c13,-17 29,-13 40,11c10,21 9,25 -6,25c-9,-1 -22,-7 -29,-14z"></path><path d="M1865,1884c-11,-2 -45,-9 -75,-15c-80,-16 -160,-39 -200,-59c-19,-10 -47,-23 -62,-30c-15,-7 -25,-16 -23,-21c6,-9 -38,-46 -65,-54c-10,-3 -24,-20 -31,-38c-7,-18 -28,-53 -46,-78c-18,-26 -33,-56 -33,-69c0,-12 -11,-36 -25,-52c-23,-28 -25,-35 -19,-96c4,-44 13,-74 25,-87c10,-12 22,-36 25,-55c4,-19 13,-47 20,-62c8,-15 14,-36 14,-48c0,-23 10,-26 28,-8c7,7 12,8 12,3c1,-6 7,5 15,23c17,39 35,38 48,-3c10,-28 -2,-46 -37,-58c-6,-2 5,-20 24,-39c19,-19 44,-46 55,-59c11,-13 31,-26 45,-27c21,-3 22,-2 11,11c-10,13 -9,18 9,27c30,16 74,9 78,-12c2,-11 -3,-18 -12,-18c-30,0 12,-48 47,-55c18,-4 39,-13 47,-21c29,-25 111,-36 218,-28c92,6 106,9 138,35c35,28 90,49 127,49c9,0 25,9 35,21c9,12 34,32 55,45c20,13 37,31 37,40c0,9 5,12 12,8c8,-5 9,-2 5,10c-6,14 -3,17 8,12c9,-3 13,-2 10,4c-4,6 3,14 15,18c45,17 89,123 97,233c6,86 -10,209 -27,209c-4,0 -11,15 -14,34c-4,19 -13,37 -21,40c-8,3 -15,14 -15,24c0,21 -36,72 -51,72c-11,0 -69,39 -84,57c-13,15 -119,63 -139,63c-8,0 -21,6 -28,13c-23,23 -202,52 -253,41zM1980,1785c0,-16 -17,-19 -44,-9c-26,10 -18,24 14,24c20,0 30,-5 30,-15zM1973,1753c-13,-2 -33,-2 -45,0c-13,2 -3,4 22,4c25,0 35,-2 23,-4zM2037,1635c23,-14 43,-30 43,-35c0,-5 14,-17 30,-27c17,-9 33,-26 36,-37c4,-12 21,-34 38,-50c30,-28 31,-31 31,-115c0,-75 -3,-91 -24,-121c-41,-59 -84,-100 -105,-100c-12,0 -39,-11 -61,-25c-52,-32 -153,-34 -223,-6c-26,11 -60,22 -76,26c-16,3 -48,24 -72,47c-46,44 -68,107 -78,219c-4,52 -2,59 22,80c15,12 54,46 86,76c36,32 69,53 83,53c13,0 23,4 23,8c0,16 57,30 129,31c63,1 81,-3 118,-24zM2283,1606c20,-15 23,-42 5,-48c-21,-7 -58,4 -58,17c0,42 21,55 53,31zM1460,1535c0,-8 -4,-15 -10,-15c-5,0 -10,7 -10,15c0,8 5,15 10,15c6,0 10,-7 10,-15zM1601,1083c16,-10 29,-20 29,-24c0,-12 -76,-26 -98,-18c-26,10 -29,46 -4,52c32,9 44,7 73,-10z"></path><path d="M3291,1873c-81,-12 -209,-59 -277,-101c-75,-46 -115,-92 -156,-177l-43,-90v-148c0,-97 4,-150 11,-155c6,-4 19,-24 29,-45c10,-21 33,-50 51,-64c19,-14 34,-30 34,-35c0,-6 26,-34 57,-63c40,-38 64,-53 83,-53c44,1 99,-22 123,-53l23,-30l161,-2c142,-1 164,1 181,16c11,10 36,20 55,24c24,3 39,12 42,24c4,11 9,20 13,20c4,1 16,3 28,4c25,3 74,33 92,57c7,10 19,18 27,18c16,0 105,87 105,103c0,7 8,26 18,42c20,33 48,136 56,206c5,43 -21,144 -48,188c-7,11 -6,12 5,6c8,-5 -1,6 -19,24c-18,19 -31,40 -28,47c3,8 1,14 -4,14c-5,0 -12,9 -15,20c-4,11 -23,29 -43,39c-20,11 -52,33 -71,50c-19,17 -39,31 -45,31c-5,0 -18,7 -28,16c-10,10 -36,19 -58,21c-22,2 -52,10 -67,18c-16,8 -38,15 -50,15c-12,0 -32,4 -45,9c-47,17 -105,18 -197,4zM3505,1640c22,-11 47,-20 56,-20c16,0 89,-74 89,-90c0,-4 20,-21 45,-39c35,-25 43,-36 36,-49c-4,-9 -11,-42 -15,-72c-4,-30 -12,-71 -17,-90c-12,-37 -110,-140 -135,-140c-8,0 -16,0 -19,0c-3,0 -19,-7 -35,-15c-62,-32 -240,-27 -240,7c0,5 -4,7 -8,4c-14,-8 -87,18 -108,38c-57,57 -64,76 -64,169c0,90 16,171 31,161c5,-3 9,1 9,9c0,16 44,67 59,67c6,0 14,7 19,15c4,9 21,19 38,24c16,4 30,13 30,19c1,7 2,14 3,17c0,3 43,5 94,5c73,0 101,-4 132,-20zM3838,1547c2,-12 -3,-17 -17,-17c-15,0 -21,6 -21,21c0,25 33,22 38,-4zM3947,1420c2,-8 -1,-22 -7,-30c-8,-13 -11,-13 -26,2c-10,9 -14,24 -10,33c7,20 40,16 43,-5zM3753,1082c25,-22 21,-30 -15,-40c-34,-9 -88,3 -88,18c0,5 12,18 26,29c26,21 46,19 77,-7zM3404,975c5,-18 13,-25 31,-25c46,0 25,-18 -29,-24c-76,-10 -106,-1 -106,33c0,37 6,41 56,41c36,0 43,-3 48,-25zM3650,992c0,-4 10,-8 23,-7c42,0 33,-20 -10,-22c-41,-2 -56,11 -36,30c9,9 23,9 23,-1z"></path><path d="M13935,1870c-27,-4 -63,-15 -80,-24c-16,-9 -38,-16 -48,-16c-26,0 -104,-47 -154,-92c-24,-21 -50,-38 -58,-38c-9,0 -14,-4 -11,-9c3,-4 -4,-17 -15,-27c-30,-27 -75,-96 -83,-128c-4,-16 -14,-35 -21,-43c-8,-8 -16,-24 -16,-36c-1,-12 -3,-35 -4,-52c-5,-47 7,-175 15,-170c4,2 15,-13 25,-35c10,-22 21,-40 26,-40c4,0 10,-12 14,-27c4,-18 17,-33 38,-43c17,-8 37,-25 42,-36c14,-28 69,-74 88,-74c9,0 19,-5 23,-11c3,-6 21,-17 38,-25c17,-8 38,-18 46,-24c8,-5 28,-11 43,-15c15,-3 26,-9 23,-13c-3,-4 -1,-14 4,-22c8,-12 40,-15 167,-15c152,0 172,3 223,34c25,15 83,39 115,47c17,4 49,24 72,45c24,22 51,39 61,39c10,0 26,14 36,31c10,18 28,41 38,51c11,11 31,45 45,75c35,77 45,246 18,319c-10,27 -22,53 -27,59c-4,5 -8,21 -8,36c0,15 -3,29 -7,31c-5,2 -15,16 -23,32c-9,18 -37,41 -72,59c-32,16 -60,38 -63,48c-4,11 -14,19 -24,19c-10,0 -29,8 -42,19c-38,29 -146,60 -249,71c-106,11 -123,11 -195,0zM14178,1645c11,-15 79,-65 89,-65c11,0 53,-55 53,-68c0,-5 10,-21 21,-36c17,-21 21,-42 22,-94c1,-75 -8,-125 -23,-130c-5,-2 -10,-9 -10,-16c0,-18 -64,-83 -99,-101c-63,-32 -248,-35 -306,-4c-5,3 -26,6 -45,8c-38,3 -60,16 -60,36c0,8 -10,26 -23,42c-31,38 -47,94 -50,176c-2,53 1,70 13,77c8,5 11,10 6,10c-5,0 -3,7 4,15c7,8 16,12 21,9c5,-3 9,1 9,8c0,26 60,87 98,99c20,7 43,21 51,31c12,18 24,19 118,16c57,-1 107,-8 111,-13zM14570,1414c0,-8 -5,-12 -10,-9c-6,4 -8,11 -5,16c9,14 15,11 15,-7zM13660,1100c0,-5 -4,-10 -10,-10c-5,0 -10,5 -10,10c0,6 5,10 10,10c6,0 10,-4 10,-10zM14271,1003c11,-20 10,-26 -3,-39c-20,-20 -103,-31 -112,-15c-4,6 -1,11 8,11c9,0 16,7 16,16c0,22 37,53 60,51c10,-1 24,-12 31,-24zM13919,958c28,-17 2,-38 -48,-38c-43,0 -55,14 -21,25c11,3 20,11 20,16c0,13 27,11 49,-3z"></path><path d="M50,1840c-11,-21 -14,-883 -3,-948c5,-28 8,-32 27,-26c11,4 140,6 286,5c303,-1 499,13 545,40c17,9 52,21 79,25c27,4 64,15 82,26c30,17 58,63 52,84c-1,5 4,19 11,32c16,29 7,73 -27,131c-40,68 -63,86 -114,90c-32,2 -55,-4 -79,-18c-43,-26 -66,-27 -74,-1c-8,27 12,52 36,45c20,-7 26,16 38,125c4,39 10,55 21,55c9,0 15,-11 17,-29c3,-41 13,-46 55,-31c67,23 101,86 102,185c1,47 -4,62 -33,102c-19,26 -45,49 -59,53c-14,3 -38,15 -52,25c-44,31 -123,37 -513,39c-204,1 -374,4 -378,7c-5,2 -13,-5 -19,-16zM489,1736c17,-9 48,-13 86,-11c77,5 142,-26 168,-79c18,-39 23,-86 8,-86c-5,0 -12,-12 -16,-27c-13,-55 -38,-67 -159,-74c-117,-7 -144,-5 -159,10c-5,5 -12,53 -17,107c-9,104 -1,141 37,163c23,13 19,13 52,-3zM860,1640c0,-5 -4,-10 -10,-10c-5,0 -10,5 -10,10c0,6 5,10 10,10c6,0 10,-4 10,-10zM683,1288c59,-31 72,-192 18,-226c-14,-9 -29,-21 -33,-27c-4,-5 -49,-11 -100,-13c-85,-3 -96,-1 -122,20c-54,43 -68,59 -61,76c3,9 8,47 11,86c8,98 16,102 157,98c62,-3 120,-9 130,-14z"></path><path d="M4527,1854c-4,-4 -76,-9 -159,-11c-108,-2 -154,-6 -160,-15c-6,-10 -5,-606 2,-808c2,-39 3,-82 3,-122l1,-36l91,-6c49,-4 131,-3 180,1l90,8l1,190c0,123 5,198 12,210c8,15 12,16 12,5c0,-13 1,-13 10,0c8,11 12,12 18,3c4,-7 17,-14 27,-16c50,-8 110,-65 119,-112c4,-19 17,-36 36,-47c16,-9 32,-27 35,-40c4,-13 24,-34 47,-48c22,-14 44,-34 50,-45c14,-32 35,-66 45,-76c22,-22 403,-50 447,-33c13,5 9,10 -16,24c-20,10 -35,28 -40,46c-5,20 -17,33 -40,42c-17,6 -33,11 -34,9c-8,-8 11,-57 22,-57c8,0 14,-7 14,-15c0,-12 -16,-15 -82,-15c-46,0 -89,4 -96,8c-6,5 -11,20 -10,35c2,22 7,27 30,27c18,0 31,7 39,21c8,16 17,20 38,16c31,-6 60,6 42,17c-6,4 -9,11 -6,16c8,12 -5,40 -19,40c-7,0 -29,18 -49,40c-19,22 -40,40 -45,40c-5,0 -18,19 -28,42c-10,23 -36,62 -56,86c-21,24 -38,49 -39,55c0,7 -3,21 -5,32c-11,43 -5,85 16,115c12,16 26,30 31,30c5,0 9,6 9,13c0,7 8,20 18,29c34,33 44,50 39,69c-4,14 0,19 13,19c10,0 22,9 25,20c3,11 10,20 15,20c14,0 116,101 130,128c6,13 9,26 6,30c-10,9 -326,1 -354,-9c-45,-17 -188,-175 -212,-235c-12,-29 -30,-56 -39,-59c-20,-6 -53,-78 -45,-99c3,-8 0,-17 -6,-21c-14,-8 -72,14 -65,25c3,5 -6,7 -20,5c-14,-1 -23,0 -20,3c2,3 0,11 -6,19c-8,9 -12,78 -13,201c-1,180 -2,187 -21,190c-12,2 -24,0 -28,-4zM5220,1066c0,-20 -13,-27 -30,-15c-13,8 -13,10 0,19c21,14 30,12 30,-4zM4350,1025c0,-8 -9,-15 -20,-15c-20,0 -26,11 -13,23c12,13 33,7 33,-8z"></path><path d="M15985,1849c-27,-4 -89,-5 -136,-2c-134,9 -129,15 -129,-182c0,-139 -2,-165 -16,-173c-9,-5 -15,-13 -14,-18c2,-19 -41,-14 -84,10c-24,13 -47,22 -50,19c-3,-3 -8,2 -12,11c-3,9 -29,27 -58,40c-28,12 -62,28 -76,34c-32,16 -94,52 -100,61c-15,18 -72,51 -90,51c-32,0 -127,36 -156,59c-15,12 -41,21 -59,21c-23,0 -34,5 -38,19c-4,16 -65,56 -73,48c-6,-6 -5,-909 1,-915c3,-3 84,-7 180,-9l175,-4l2,83c2,46 1,116 0,157c-4,92 8,121 53,121c18,0 49,-11 69,-25c50,-34 124,-71 161,-79c43,-11 99,-38 108,-53c4,-7 26,-17 48,-23c21,-6 66,-26 98,-45c33,-19 64,-35 69,-35c6,0 17,-6 25,-14c27,-28 190,-107 199,-98c12,12 21,867 10,906c-10,36 -37,45 -107,35zM14983,1733c-7,-2 -19,-2 -25,0c-7,3 -2,5 12,5c14,0 19,-2 13,-5zM15638,1263c5,-17 -26,-29 -40,-15c-6,6 -7,15 -3,22c9,14 37,9 43,-7zM15030,980c0,-5 -9,-10 -20,-10c-11,0 -20,5 -20,10c0,6 9,10 20,10c11,0 20,-4 20,-10z"></path><path d="M17218,1844c-4,-3 -59,-7 -125,-8l-118,-3l-3,-367c-1,-230 1,-366 7,-366c6,0 24,-20 41,-45c17,-25 37,-45 45,-45c7,0 27,-16 43,-35c24,-29 38,-37 85,-45c31,-5 66,-14 79,-21c38,-21 498,-18 498,3c0,4 0,11 -1,14c-2,13 22,20 63,18c32,-1 46,3 56,17c7,10 19,19 27,19c7,0 24,13 37,30c12,16 34,44 48,62c48,62 51,84 57,416c4,228 2,319 -6,335c-11,21 -16,22 -136,17c-82,-3 -128,-9 -137,-18c-10,-10 -12,-49 -10,-155c4,-178 -8,-508 -18,-502c-9,6 -20,-19 -20,-44c0,-11 -16,-25 -42,-37c-35,-16 -64,-19 -172,-18c-162,2 -203,12 -233,60c-23,35 -23,41 -23,360c0,308 -4,364 -29,364c-4,0 -10,-3 -13,-6zM17908,1768c13,-13 15,-71 6,-130c-5,-27 -12,-38 -24,-38c-15,0 -19,13 -25,75c-5,54 -3,80 5,90c15,18 22,19 38,3zM17226,1037c4,-3 4,-13 0,-22c-4,-12 -14,-15 -33,-11c-16,4 -39,8 -52,11c-31,6 -39,14 -21,25c15,9 96,7 106,-3z"></path><path d="M19228,1845c-1,-2 -185,-6 -408,-10c-223,-4 -409,-7 -415,-8c-5,0 -34,3 -62,7l-53,8v-70c0,-44 5,-74 12,-78c15,-9 385,-12 400,-3c6,4 11,18 11,32c0,43 64,51 102,12c24,-23 36,-63 16,-50c-5,3 -12,1 -16,-4c-3,-6 12,-19 34,-30c76,-39 64,-89 -20,-87c-49,1 -54,-1 -93,-45c-22,-25 -68,-58 -100,-75c-32,-16 -61,-37 -64,-46c-2,-10 -24,-27 -48,-39c-24,-11 -44,-25 -44,-29c0,-13 -125,-140 -137,-140c-5,0 -26,-16 -47,-35c-22,-19 -51,-41 -65,-48c-25,-12 -26,-15 -28,-110l-2,-97l217,-1c535,-3 897,2 904,14c4,7 8,45 8,85v72h-252c-263,0 -298,-3 -298,-26c0,-7 10,-19 23,-26c21,-12 20,-13 -23,-19c-65,-11 -118,-11 -102,0c8,4 13,12 11,17c-1,5 8,14 21,20c25,14 19,19 -33,28c-29,5 -37,11 -33,22c3,9 1,12 -4,9c-14,-9 -12,7 6,43c8,18 20,32 26,32c16,0 97,63 98,75c0,6 24,33 52,62c29,28 61,60 71,70c62,62 108,103 116,103c19,0 80,33 75,41c-5,9 98,99 115,99c6,0 11,6 11,14c0,8 8,17 18,20c11,4 29,17 41,30c19,20 22,33 19,92c-3,66 -4,69 -30,71c-14,1 -28,0 -30,-2zM18525,1780c73,0 104,-4 108,-12c3,-9 -11,-14 -51,-15c-34,-2 -62,-9 -73,-19c-15,-13 -24,-14 -48,-6c-17,6 -31,7 -33,2c-2,-6 -9,-5 -18,0c-13,9 -13,11 0,20c13,8 12,10 -2,10c-10,0 -18,7 -18,16c0,11 5,14 16,10c9,-3 62,-6 119,-6zM18542,1088c-9,-9 -12,-7 -12,12c0,19 3,21 12,12c9,-9 9,-15 0,-24zM18463,993c-7,-2 -19,-2 -25,0c-7,3 -2,5 12,5c14,0 19,-2 13,-5zM18863,993c-7,-2 -19,-2 -25,0c-7,3 -2,5 12,5c14,0 19,-2 13,-5zM19200,990c-20,-13 -210,-13 -210,0c0,6 44,10 113,10c76,0 107,-3 97,-10z"></path><path d="M5842,1829c-29,-4 -63,-14 -77,-23c-13,-9 -33,-16 -45,-16c-11,0 -46,-23 -77,-50c-32,-28 -64,-55 -70,-61c-7,-5 -13,-22 -13,-37c-1,-15 -7,-38 -15,-52c-19,-33 -19,-114 -1,-129c8,-7 18,-27 22,-44c9,-44 14,-50 29,-37c20,17 75,-17 75,-45c0,-30 37,-61 89,-75c24,-6 54,-18 67,-26c16,-11 48,-14 127,-12l105,3l36,-38c50,-53 50,-95 -1,-134c-35,-27 -41,-28 -170,-31c-73,-2 -133,-8 -133,-13c0,-5 9,-9 20,-9c11,0 20,-7 20,-15c0,-8 8,-15 19,-15c10,0 29,-11 42,-24c13,-12 31,-26 39,-29c8,-3 -10,-6 -42,-6c-31,-1 -58,3 -60,9c-1,5 -20,12 -41,15c-21,4 -54,13 -73,21c-20,8 -44,14 -54,12c-11,-2 -25,5 -32,14c-19,24 -68,35 -68,15c0,-18 53,-47 85,-47c12,0 31,-9 43,-20c12,-11 31,-20 43,-20c13,0 23,-8 26,-20c3,-11 15,-23 27,-26c60,-15 357,-5 392,14c11,5 31,12 47,16c37,9 36,36 -2,36c-41,0 -91,11 -91,20c0,9 42,21 88,25c23,3 36,-2 46,-16c14,-20 14,-20 58,3c33,17 51,35 68,71c14,26 32,55 42,64c24,22 26,159 2,204c-21,42 -111,129 -132,129c-10,0 -24,6 -30,13c-9,8 -62,14 -155,18c-116,5 -151,10 -192,28c-27,12 -53,28 -57,34c-4,7 -8,37 -8,67c0,51 3,57 33,77c17,12 46,25 62,29c45,10 50,16 30,30c-23,17 -14,27 30,30c26,2 38,-2 49,-18c9,-13 19,-17 28,-12c7,4 44,9 83,10c75,3 105,-11 105,-49c0,-17 5,-19 41,-14c23,3 46,10 51,15c14,14 -61,92 -89,92c-12,0 -26,7 -31,16c-5,9 -31,20 -58,25c-64,13 -284,18 -352,8zM5894,1327c24,-18 17,-48 -15,-66c-23,-13 -27,-12 -53,14c-26,26 -26,28 -10,46c20,22 53,25 78,6zM6345,1129c4,-11 4,-23 0,-27c-7,-7 -25,17 -25,36c0,20 18,14 25,-9z"></path><path d="M10420,1830l-55,-5l-1,-435c0,-239 -4,-447 -7,-462c-5,-17 -3,-30 5,-35c20,-12 127,-14 148,-3c13,7 36,6 70,-1c37,-8 54,-8 64,0c11,10 14,97 15,464c1,278 -3,458 -9,467c-10,16 -115,20 -230,10zM10539,1047c7,-13 11,-37 9,-53c-2,-23 -8,-29 -27,-29c-32,0 -49,46 -30,81c16,30 32,31 48,1z"></path><path d="M11135,1833c-49,-2 -94,-8 -99,-13c-10,-10 -13,-911 -2,-928c7,-12 595,-16 614,-4c9,6 12,29 10,78l-3,69l-65,-1c-36,0 -96,-2 -135,-4c-65,-3 -133,5 -144,16c-3,3 1,15 9,27c12,18 16,86 18,374c3,344 3,352 -17,372c-15,15 -32,20 -58,19c-21,-1 -78,-4 -128,-5zM11220,1705c0,-8 -6,-15 -12,-15c-7,0 -23,-3 -35,-6c-19,-5 -23,-2 -23,15c0,17 6,21 35,21c24,0 35,-5 35,-15z"></path><path d="M11969,1823c-7,-7 -9,-184 -7,-477c2,-382 5,-467 17,-478c10,-10 12,-10 7,0c-6,9 42,13 221,14c125,2 261,2 301,0l73,-3l-3,78l-3,78l-105,-2c-60,-1 -126,3 -155,11l-50,12l3,378c2,274 0,381 -8,391c-15,19 -276,17 -291,-2z"></path><path d="M13030,1831l-105,-6l-1,-430c0,-237 -4,-443 -7,-457c-10,-36 16,-62 52,-52c14,4 68,8 119,9c51,1 94,4 97,6c2,2 7,210 11,461c6,453 6,456 -14,467c-11,6 -27,10 -34,9c-7,-1 -60,-4 -118,-7zM13110,1720c0,-22 -4,-40 -10,-40c-6,0 -10,-27 -10,-60v-60h-30h-30v60c0,53 -2,60 -20,60c-17,0 -20,7 -20,40v40h60h60zM13127,1603c-3,-10 -5,-4 -5,12c0,17 2,24 5,18c2,-7 2,-21 0,-30zM13075,1029c13,-19 -4,-59 -25,-59c-16,0 -20,7 -20,35c0,28 4,35 19,35c11,0 23,-5 26,-11z"></path><path d="M9960,1786c-41,-25 -81,-50 -88,-56c-7,-6 -17,-8 -24,-4c-7,4 -8,3 -4,-4c5,-8 -1,-12 -18,-12c-14,0 -29,-6 -33,-14c-4,-8 -12,-15 -18,-16c-30,-6 -55,-21 -55,-34c0,-8 -19,-24 -42,-36c-22,-12 -50,-32 -60,-46c-11,-13 -27,-24 -37,-24c-9,0 -23,-6 -30,-12c-11,-11 -13,-10 -6,2c4,8 -8,-2 -27,-22c-57,-63 -146,-64 -212,-3c-21,19 -46,37 -56,40c-10,3 -24,12 -30,20c-7,8 -19,15 -27,15c-15,0 -46,24 -86,68c-11,12 -26,22 -33,22c-12,0 -106,57 -134,82c-9,7 -36,20 -61,30l-46,16l-8,-66c-5,-37 -9,-105 -10,-152c-2,-119 -14,-259 -30,-365c-21,-139 -28,-310 -14,-333c10,-17 17,-18 46,-9c22,7 44,7 66,0c20,-6 45,-6 67,0c19,5 52,7 73,4c30,-4 40,-1 52,16c8,11 11,25 8,30c-4,6 -6,39 -5,73c1,35 -3,75 -8,90c-7,18 -7,37 -1,58c5,17 15,50 21,74c10,38 14,42 41,42c28,0 43,-9 106,-60c7,-6 20,-10 30,-10c10,0 29,-7 43,-15c14,-8 35,-19 48,-24c12,-6 22,-17 22,-26c0,-8 9,-15 19,-15c11,0 27,-3 37,-7c11,-4 15,-3 11,4c-4,6 5,15 22,21c16,6 32,20 36,31c3,12 15,21 26,21c24,0 32,2 44,12c40,33 101,65 116,61c10,-3 16,-9 13,-14c-3,-5 -1,-9 4,-9c14,0 25,-97 26,-220l1,-105l37,3c21,2 48,-3 60,-9c13,-7 61,-13 107,-13c57,-1 86,-5 89,-14c7,-21 38,-13 52,12c8,17 10,38 6,63c-9,48 -13,150 -21,533c-6,306 -9,350 -23,350c-4,0 -41,-20 -82,-44zM9500,1220c0,-5 -4,-10 -10,-10c-5,0 -10,5 -10,10c0,6 5,10 10,10c6,0 10,-4 10,-10z"></path><path d="M7588,1783c-9,-10 -19,-29 -23,-41c-4,-14 -21,-30 -40,-38c-19,-7 -37,-24 -40,-36c-4,-13 -13,-30 -20,-38c-7,-8 -16,-26 -20,-40c-4,-14 -33,-56 -64,-93c-31,-38 -66,-83 -79,-100c-12,-18 -29,-36 -36,-42c-7,-5 -25,-31 -40,-57c-15,-27 -31,-48 -36,-48c-4,0 -17,-20 -29,-45c-12,-25 -35,-60 -51,-77c-17,-17 -30,-41 -30,-54c0,-12 -4,-24 -9,-26c-13,-4 -111,-128 -111,-140c0,-22 60,-29 197,-22c154,7 160,10 141,64c-7,19 -5,27 9,38c10,7 25,11 33,9c9,-2 21,2 28,10c10,10 64,13 251,13c223,0 240,-1 264,-20c14,-11 31,-20 37,-20c9,0 11,-11 7,-35c-9,-57 0,-61 186,-63c109,-1 168,1 172,9c4,5 -11,27 -33,47c-22,20 -43,50 -46,66c-4,16 -20,41 -37,57c-38,36 -109,130 -109,146c0,6 -16,29 -36,49c-19,21 -47,63 -61,92c-14,30 -54,82 -89,119c-35,35 -64,70 -64,77c0,7 -16,30 -35,51c-19,22 -37,51 -40,65c-3,14 -21,35 -40,47c-22,15 -37,35 -43,55c-10,39 -40,48 -64,21zM7620,1680c0,-5 -4,-10 -10,-10c-5,0 -10,5 -10,10c0,6 5,10 10,10c6,0 10,-4 10,-10zM7568,1451c8,-24 23,-31 66,-31c30,0 37,-3 32,-16c-3,-8 -2,-12 4,-9c5,3 12,-11 16,-32c4,-21 15,-54 24,-73c10,-19 25,-66 33,-105c8,-38 20,-85 25,-103c6,-19 7,-30 1,-27c-5,4 -9,2 -9,-2c0,-12 -79,-3 -86,9c-4,6 -2,13 3,17c10,6 33,45 33,55c0,3 -55,7 -122,8l-122,3l-9,35c-7,28 -5,37 10,50c22,18 63,92 63,113c0,9 7,22 15,31c14,13 13,16 -6,26c-11,7 -23,9 -27,6c-11,-11 -40,25 -35,44c8,32 79,33 91,1zM7450,1361c21,-17 23,-22 12,-46c-10,-21 -18,-26 -40,-23c-21,2 -28,9 -30,31c-3,26 12,57 27,57c3,0 17,-9 31,-19zM7480,1121c5,-11 10,-29 10,-40c0,-10 6,-22 13,-25c19,-9 -62,4 -89,14c-28,11 -31,37 -6,56c25,19 60,17 72,-5zM8068,998c17,-17 15,-53 -4,-69c-14,-11 -18,-10 -30,6c-8,10 -14,26 -14,35c0,16 18,40 30,40c3,0 11,-5 18,-12zM8160,969c0,-5 -4,-9 -10,-9c-5,0 -10,7 -10,16c0,8 5,12 10,9c6,-3 10,-10 10,-16z"></path><path d="M6233,1668c-30,-14 -29,-25 3,-31c18,-3 24,-1 20,9c-3,8 -1,14 4,14c6,0 10,5 10,10c0,12 -8,12 -37,-2z"></path><path d="M6820,1429c0,-5 9,-18 21,-30c20,-20 20,-21 2,-71c-11,-32 -27,-55 -45,-66c-42,-25 -33,-45 10,-23c9,5 25,12 35,15c11,3 21,15 24,25c3,11 11,22 19,25c15,6 18,84 4,106c-9,14 -70,31 -70,19z"></path><path d="M8333,1427c-44,-16 -46,-20 -45,-74c1,-33 7,-52 19,-60c10,-8 19,-9 23,-4c3,6 11,6 20,1c11,-7 11,-10 2,-10c-9,0 -8,-7 4,-25c9,-14 25,-25 35,-25c21,0 82,34 116,66c30,28 31,82 2,113c-19,20 -28,22 -70,17c-31,-4 -49,-3 -49,4c0,13 -16,12 -57,-3zM8440,1393c0,-7 4,-13 8,-13c5,0 14,-11 20,-25c11,-23 9,-29 -15,-50c-35,-31 -83,-34 -83,-5c0,11 -4,20 -10,20c-5,0 -10,20 -10,45v44l45,-2c28,-1 45,-7 45,-14z"></path><path d="M6671,1401c-12,-16 -21,-45 -21,-64c0,-31 3,-35 30,-39c28,-4 30,-2 30,27c0,18 9,44 20,58c28,35 25,47 -9,47c-21,0 -36,-8 -50,-29z"></path><path d="M16429,1424c-19,-6 -29,-33 -29,-86c0,-36 10,-50 40,-55c8,-1 25,-14 36,-29c12,-14 27,-23 33,-20c21,13 11,41 -24,66c-19,14 -35,31 -35,38c0,16 24,42 39,42c6,0 11,5 11,10c0,15 30,12 47,-6c11,-10 14,-27 10,-54c-6,-49 11,-67 45,-49c53,28 63,81 23,119c-20,19 -37,23 -102,26c-43,1 -85,0 -94,-2z"></path><path d="M5683,1103c-15,-3 -23,-12 -23,-24c0,-14 -7,-19 -29,-19c-17,0 -33,-4 -36,-10c-4,-6 12,-10 42,-10c26,0 62,-4 78,-9c35,-10 50,2 50,38c-1,33 -29,44 -82,34z"></path><path d="M47,223c-9,-8 -9,-120 -1,-161l6,-31h9639h9639l5,22c3,12 4,56 2,97l-2,75l-9641,3c-5302,1 -9644,-1 -9647,-5zM5270,120c0,-6 -654,-11 -1717,-12c-1980,-3 -2443,-1 -2443,12c0,5 848,9 2080,9c1292,0 2080,-4 2080,-9zM6070,120c0,-12 -463,-12 -575,0c-43,4 54,7 253,8c209,1 322,-2 322,-8zM6793,123c-46,-2 -120,-2 -165,0c-46,1 -9,3 82,3c91,0 128,-2 83,-3zM7073,123c-24,-2 -62,-2 -85,0c-24,2 -5,4 42,4c47,0 66,-2 43,-4zM13253,123c-13,-2 -33,-2 -45,0c-13,2 -3,4 22,4c25,0 35,-2 23,-4zM13473,123c-24,-2 -62,-2 -85,0c-24,2 -5,4 42,4c47,0 66,-2 43,-4zM17350,120c0,-7 -259,-9 -762,-8c-647,2 -701,3 -358,8c786,10 1120,10 1120,0zM10943,113c-7,-2 -19,-2 -25,0c-7,3 -2,5 12,5c14,0 19,-2 13,-5zM14503,113c-29,-2 -77,-2 -105,0c-29,2 -6,3 52,3c58,0 81,-1 53,-3zM15633,113c-24,-2 -62,-2 -85,0c-24,2 -5,4 42,4c47,0 66,-2 43,-4zM18353,113c-24,-2 -62,-2 -85,0c-24,2 -5,4 42,4c47,0 66,-2 43,-4zM18833,113c-68,-2 -178,-2 -245,0c-68,1 -13,3 122,3c135,0 190,-2 123,-3z"></path></g></g></g></svg>