<svg width="45" height="56" viewBox="0 0 45 56" fill="none" xmlns="http://www.w3.org/2000/svg">
<path d="M11.9369 0.316406H37.8487C39.7212 0.316406 41.5993 0.622406 42.9103 1.98116C44.2017 3.32307 44.4459 5.18153 44.4459 6.91365V40.0403C44.4459 41.5646 44.2438 43.0638 43.4633 44.2765C43.0131 44.9761 42.3828 45.5414 41.6386 45.9132V48.4623C41.6386 50.332 41.3354 52.2101 39.9794 53.5211C38.6375 54.8181 36.7791 55.0595 35.0469 55.0595H5.14317C4.02634 55.0595 2.95525 54.6159 2.16554 53.8261C1.37582 53.0364 0.932162 51.9653 0.932162 50.8485V10.8917C0.92374 9.4936 0.915318 7.74743 1.29712 6.15567C1.76594 4.21299 2.84677 2.32927 5.14598 1.15861C6.09486 0.675746 7.09427 0.484847 8.16106 0.400626C9.18574 0.316406 10.435 0.316406 11.9369 0.316406ZM5.14317 50.8485H35.0469C36.5826 50.8485 36.9644 50.579 37.0514 50.4948C37.1216 50.4274 37.4276 50.0597 37.4276 48.4623V46.6375H9.35418C8.23735 46.6375 7.16626 47.0812 6.37655 47.8709C5.58683 48.6606 5.14317 49.7317 5.14317 50.8485Z" fill="white"/>
</svg>
