<svg width="34" height="34" viewBox="0 0 34 34" fill="none" xmlns="http://www.w3.org/2000/svg">
<path d="M11.5742 3.1875H24.65C25.5949 3.1875 26.5427 3.34192 27.2043 4.02758C27.8559 4.70475 27.9792 5.64258 27.9792 6.51667V23.2333C27.9792 24.0026 27.8772 24.7591 27.4833 25.3711C27.2561 25.7241 26.938 26.0094 26.5625 26.197V27.4833C26.5625 28.4268 26.4095 29.3746 25.7253 30.0362C25.0481 30.6907 24.1103 30.8125 23.2362 30.8125H8.14584C7.58226 30.8125 7.04175 30.5886 6.64324 30.1901C6.24472 29.7916 6.02084 29.2511 6.02084 28.6875V8.52408C6.01659 7.81858 6.01234 6.93742 6.20501 6.13417C6.44159 5.15383 6.98701 4.20325 8.14726 3.6125C8.62609 3.36883 9.13042 3.2725 9.66876 3.23C10.1858 3.1875 10.8163 3.1875 11.5742 3.1875ZM8.14584 28.6875H23.2362C24.0111 28.6875 24.2038 28.5515 24.2477 28.509C24.2831 28.475 24.4375 28.2894 24.4375 27.4833V26.5625H10.2708C9.70726 26.5625 9.16675 26.7864 8.76824 27.1849C8.36972 27.5834 8.14584 28.1239 8.14584 28.6875Z" fill="#2356CE"/>
</svg>
